<?xml version="1.0" encoding="UTF-8"?>
<svg xmlns="http://www.w3.org/2000/svg" viewBox="0 0 342 342" role="img" aria-labelledby="title desc">
  <title id="title">Avensio logo mark</title>
  <desc id="desc">Cleaned Avensio gradient logo mark with transparent background.</desc>
  <defs>
    <linearGradient id="avensioGradient" x1="74" y1="82" x2="281" y2="276" gradientUnits="userSpaceOnUse">
      <stop offset="0%" stop-color="#58E4D5"/>
      <stop offset="42%" stop-color="#40B2F0"/>
      <stop offset="72%" stop-color="#3D82F6"/>
      <stop offset="100%" stop-color="#3F5FFF"/>
    </linearGradient>
  </defs>
  <path d="M 203.18 80.01 L 201.55 80.43 L 199.96 80.88 L 198.38 81.39 L 196.84 81.93 L 195.32 82.52 L 193.82 83.14 L 192.35 83.81 L 190.90 84.51 L 189.48 85.25 L 188.08 86.03 L 186.69 86.84 L 185.33 87.69 L 183.99 88.57 L 182.67 89.48 L 181.37 90.42 L 180.09 91.39 L 178.82 92.39 L 177.57 93.42 L 176.34 94.47 L 175.12 95.55 L 173.92 96.66 L 172.74 97.79 L 171.56 98.94 L 170.40 100.11 L 169.25 101.30 L 168.12 102.51 L 166.99 103.74 L 165.88 104.98 L 164.78 106.25 L 163.68 107.52 L 162.59 108.81 L 161.52 110.12 L 160.44 111.43 L 159.38 112.76 L 158.32 114.09 L 157.27 115.44 L 156.22 116.79 L 155.18 118.15 L 154.14 119.51 L 153.10 120.88 L 152.06 122.25 L 151.03 123.63 L 149.99 125.00 L 148.96 126.38 L 147.93 127.75 L 146.89 129.12 L 145.86 130.49 L 144.82 131.86 L 143.78 133.22 L 142.73 134.57 L 141.68 135.92 L 140.63 137.26 L 139.58 138.60 L 138.52 139.93 L 137.46 141.26 L 136.39 142.58 L 135.32 143.90 L 134.25 145.21 L 133.18 146.52 L 132.11 147.82 L 131.03 149.12 L 129.95 150.42 L 128.87 151.71 L 127.79 153.00 L 126.70 154.29 L 125.61 155.57 L 124.52 156.85 L 123.43 158.13 L 122.34 159.40 L 121.25 160.68 L 120.15 161.95 L 119.06 163.22 L 117.96 164.48 L 116.86 165.75 L 115.76 167.01 L 114.66 168.27 L 113.56 169.54 L 112.46 170.80 L 111.36 172.06 L 110.25 173.32 L 109.15 174.58 L 108.05 175.84 L 106.95 177.10 L 105.84 178.36 L 104.74 179.62 L 103.64 180.88 L 102.54 182.14 L 101.43 183.40 L 100.33 184.67 L 99.23 185.93 L 98.13 187.20 L 97.03 188.47 L 95.94 189.74 L 94.84 191.01 L 93.74 192.28 L 92.65 193.56 L 91.56 194.84 L 90.47 196.12 L 89.38 197.41 L 88.29 198.70 L 87.20 199.99 L 86.12 201.29 L 85.04 202.59 L 83.96 203.89 L 82.88 205.19 L 81.80 206.50 L 80.72 207.81 L 79.65 209.12 L 78.57 210.43 L 77.50 211.75 L 76.43 213.07 L 75.35 214.39 L 74.28 215.71 L 73.21 217.03 L 72.14 218.35 L 71.08 219.68 L 70.01 221.00 L 68.94 222.33 L 67.87 223.65 L 66.81 224.98 L 65.74 226.31 L 64.67 227.63 L 63.61 228.96 L 62.54 230.29 L 61.48 231.62 L 60.41 232.94 L 59.34 234.27 L 58.27 235.59 L 57.21 236.92 L 56.14 238.24 L 55.07 239.56 L 54.00 240.88 L 52.93 242.20 L 51.86 243.52 L 50.79 244.83 L 49.72 246.15 L 48.64 247.46 L 47.57 248.77 L 46.49 250.07 L 45.42 251.38 L 44.34 252.68 L 43.26 253.98 L 42.18 255.27 L 41.10 256.57 L 40.01 257.85 L 38.92 259.14 L 37.84 260.42 L 36.75 261.70 L 35.66 262.97 L 34.56 264.24 L 33.47 265.51 L 32.37 266.77 L 31.30 268.01 L 30.27 269.22 L 29.31 270.38 L 28.44 271.47 L 27.69 272.49 L 27.09 273.42 L 26.66 274.24 L 26.42 274.93 L 26.40 275.48 L 26.62 275.88 L 27.11 276.12 L 27.87 276.18 L 28.88 276.08 L 30.11 275.84 L 31.53 275.48 L 33.11 275.01 L 34.82 274.46 L 36.63 273.84 L 38.51 273.16 L 40.43 272.44 L 42.36 271.71 L 44.27 270.98 L 46.14 270.26 L 47.96 269.56 L 49.75 268.87 L 51.49 268.18 L 53.20 267.51 L 54.87 266.85 L 56.51 266.19 L 58.12 265.54 L 59.70 264.89 L 61.26 264.24 L 62.79 263.59 L 64.31 262.94 L 65.81 262.29 L 67.29 261.63 L 68.76 260.97 L 70.22 260.30 L 71.68 259.61 L 73.13 258.92 L 74.57 258.21 L 76.02 257.49 L 77.46 256.76 L 78.91 256.01 L 80.36 255.24 L 81.80 254.47 L 83.25 253.67 L 84.70 252.87 L 86.14 252.05 L 87.58 251.22 L 89.03 250.37 L 90.47 249.51 L 91.90 248.64 L 93.34 247.76 L 94.77 246.87 L 96.20 245.96 L 97.63 245.04 L 99.06 244.11 L 100.48 243.17 L 101.89 242.22 L 103.31 241.26 L 104.72 240.29 L 106.12 239.31 L 107.52 238.32 L 108.92 237.32 L 110.30 236.31 L 111.69 235.30 L 113.07 234.27 L 114.44 233.24 L 115.80 232.19 L 117.16 231.14 L 118.51 230.08 L 119.86 229.02 L 121.19 227.94 L 122.52 226.86 L 123.85 225.78 L 125.16 224.68 L 126.46 223.58 L 127.76 222.48 L 129.05 221.37 L 130.33 220.25 L 131.60 219.13 L 132.85 218.00 L 134.10 216.87 L 135.34 215.73 L 136.57 214.59 L 137.79 213.45 L 138.99 212.30 L 140.19 211.15 L 141.37 210.00 L 142.55 208.84 L 143.71 207.68 L 144.86 206.51 L 146.00 205.34 L 147.13 204.17 L 148.25 202.99 L 149.36 201.80 L 150.47 200.61 L 151.57 199.41 L 152.66 198.20 L 153.74 196.98 L 154.82 195.76 L 155.90 194.53 L 156.97 193.28 L 158.04 192.03 L 159.10 190.76 L 160.16 189.49 L 161.22 188.20 L 162.28 186.90 L 163.33 185.59 L 164.39 184.26 L 165.45 182.92 L 166.50 181.57 L 167.56 180.20 L 168.62 178.81 L 169.69 177.41 L 170.75 175.99 L 171.82 174.56 L 172.90 173.11 L 173.97 171.64 L 175.05 170.17 L 176.14 168.68 L 177.22 167.20 L 178.31 165.71 L 179.40 164.23 L 180.49 162.76 L 181.58 161.30 L 182.67 159.85 L 183.76 158.43 L 184.84 157.03 L 185.93 155.66 L 187.01 154.31 L 188.09 153.01 L 189.16 151.74 L 190.23 150.51 L 191.30 149.34 L 192.36 148.21 L 193.42 147.13 L 194.47 146.12 L 195.51 145.16 L 196.54 144.28 L 197.57 143.46 L 198.59 142.73 L 199.59 142.09 L 200.58 141.57 L 201.56 141.18 L 202.51 140.93 L 203.45 140.83 L 204.36 140.91 L 205.24 141.18 L 206.10 141.64 L 206.93 142.32 L 207.73 143.21 L 208.50 144.31 L 209.23 145.59 L 209.93 147.03 L 210.59 148.62 L 211.22 150.32 L 211.81 152.13 L 212.36 154.02 L 212.87 155.98 L 213.34 157.97 L 213.77 159.99 L 214.16 162.02 L 214.51 164.04 L 214.84 166.05 L 215.15 168.04 L 215.46 170.00 L 215.76 171.92 L 216.07 173.80 L 216.41 175.63 L 216.76 177.40 L 217.16 179.10 L 217.59 180.72 L 218.08 182.26 L 218.63 183.70 L 219.25 185.05 L 219.94 186.28 L 220.73 187.40 L 221.60 188.40 L 222.58 189.27 L 223.68 189.99 L 224.89 190.57 L 226.20 191.02 L 227.61 191.35 L 229.11 191.57 L 230.68 191.69 L 232.32 191.72 L 234.01 191.68 L 235.75 191.57 L 237.52 191.40 L 239.32 191.19 L 241.14 190.95 L 242.96 190.69 L 244.78 190.41 L 246.58 190.14 L 248.35 189.87 L 250.09 189.64 L 251.79 189.43 L 253.42 189.27 L 254.96 189.15 L 256.38 189.08 L 257.62 189.07 L 258.67 189.11 L 259.49 189.22 L 260.05 189.39 L 260.30 189.62 L 260.22 189.93 L 259.80 190.31 L 259.08 190.75 L 258.12 191.23 L 256.95 191.76 L 255.63 192.31 L 254.19 192.89 L 252.69 193.47 L 251.16 194.05 L 249.62 194.62 L 248.07 195.20 L 246.50 195.77 L 244.93 196.34 L 243.34 196.90 L 241.74 197.47 L 240.13 198.03 L 238.52 198.59 L 236.90 199.15 L 235.27 199.70 L 233.63 200.26 L 231.99 200.81 L 230.34 201.37 L 228.69 201.92 L 227.03 202.48 L 225.38 203.03 L 223.72 203.58 L 222.06 204.14 L 220.39 204.69 L 218.73 205.25 L 217.07 205.81 L 215.41 206.37 L 213.76 206.93 L 212.10 207.49 L 210.46 208.06 L 208.81 208.62 L 207.17 209.19 L 205.54 209.77 L 203.91 210.34 L 202.29 210.92 L 200.68 211.50 L 199.08 212.09 L 197.48 212.68 L 195.90 213.27 L 194.33 213.87 L 192.77 214.48 L 191.22 215.08 L 189.68 215.70 L 188.16 216.32 L 186.66 216.94 L 185.17 217.57 L 183.69 218.21 L 182.23 218.85 L 180.77 219.50 L 179.33 220.15 L 177.89 220.82 L 176.45 221.49 L 175.01 222.17 L 173.57 222.86 L 172.12 223.56 L 170.67 224.27 L 169.20 224.98 L 167.73 225.71 L 166.23 226.45 L 164.72 227.20 L 163.18 227.96 L 161.63 228.74 L 160.04 229.52 L 158.43 230.32 L 156.78 231.13 L 155.11 231.96 L 153.39 232.80 L 151.63 233.65 L 149.84 234.52 L 148.00 235.40 L 146.14 236.29 L 144.28 237.18 L 142.46 238.06 L 140.69 238.93 L 139.02 239.76 L 137.46 240.57 L 136.04 241.32 L 134.79 242.03 L 133.75 242.67 L 132.92 243.24 L 132.35 243.74 L 132.06 244.15 L 132.04 244.47 L 132.26 244.72 L 132.69 244.90 L 133.30 245.02 L 134.06 245.10 L 134.93 245.14 L 135.89 245.15 L 136.92 245.14 L 138.01 245.11 L 139.17 245.06 L 140.39 244.98 L 141.66 244.90 L 143.00 244.79 L 144.38 244.68 L 145.82 244.55 L 147.30 244.41 L 148.83 244.26 L 150.40 244.10 L 152.02 243.93 L 153.67 243.76 L 155.35 243.59 L 157.07 243.41 L 158.81 243.24 L 160.59 243.06 L 162.38 242.89 L 164.20 242.72 L 166.04 242.56 L 167.90 242.41 L 169.76 242.26 L 171.64 242.12 L 173.53 241.99 L 175.43 241.88 L 177.33 241.78 L 179.22 241.70 L 181.12 241.63 L 183.01 241.59 L 184.90 241.56 L 186.78 241.56 L 188.64 241.58 L 190.49 241.62 L 192.32 241.69 L 194.13 241.79 L 195.92 241.91 L 197.68 242.07 L 199.42 242.26 L 201.12 242.49 L 202.79 242.75 L 204.43 243.04 L 206.05 243.36 L 207.63 243.72 L 209.19 244.10 L 210.72 244.52 L 212.23 244.96 L 213.72 245.43 L 215.19 245.93 L 216.64 246.44 L 218.07 246.98 L 219.49 247.55 L 220.90 248.13 L 222.29 248.73 L 223.68 249.35 L 225.05 249.99 L 226.42 250.65 L 227.78 251.31 L 229.14 251.99 L 230.50 252.69 L 231.85 253.39 L 233.21 254.11 L 234.57 254.83 L 235.93 255.56 L 237.30 256.29 L 238.68 257.03 L 240.06 257.78 L 241.46 258.52 L 242.86 259.27 L 244.28 260.02 L 245.72 260.77 L 247.17 261.51 L 248.65 262.25 L 250.14 262.99 L 251.65 263.72 L 253.19 264.45 L 254.75 265.16 L 256.34 265.87 L 257.95 266.56 L 259.60 267.25 L 261.27 267.92 L 262.98 268.57 L 264.73 269.21 L 266.50 269.84 L 268.30 270.44 L 270.11 271.01 L 271.93 271.55 L 273.75 272.06 L 275.57 272.53 L 277.37 272.95 L 279.15 273.33 L 280.90 273.66 L 282.61 273.93 L 284.28 274.14 L 285.90 274.29 L 287.46 274.36 L 288.95 274.37 L 290.36 274.30 L 291.70 274.15 L 292.95 273.92 L 294.10 273.59 L 295.14 273.17 L 296.07 272.66 L 296.89 272.05 L 297.58 271.33 L 298.15 270.51 L 298.62 269.61 L 298.97 268.61 L 299.23 267.54 L 299.40 266.39 L 299.48 265.17 L 299.48 263.89 L 299.41 262.54 L 299.27 261.15 L 299.07 259.71 L 298.81 258.23 L 298.51 256.71 L 298.16 255.16 L 297.78 253.59 L 297.37 252.00 L 296.93 250.40 L 296.48 248.79 L 296.02 247.17 L 295.55 245.56 L 295.07 243.95 L 294.58 242.34 L 294.09 240.73 L 293.58 239.11 L 293.07 237.50 L 292.56 235.89 L 292.04 234.28 L 291.51 232.67 L 290.97 231.06 L 290.43 229.45 L 289.88 227.84 L 289.33 226.24 L 288.78 224.63 L 288.22 223.02 L 287.65 221.41 L 287.08 219.81 L 286.51 218.20 L 285.93 216.60 L 285.35 215.00 L 284.77 213.39 L 284.18 211.79 L 283.60 210.19 L 283.01 208.59 L 282.41 206.99 L 281.82 205.39 L 281.22 203.79 L 280.63 202.20 L 280.03 200.60 L 279.43 199.00 L 278.84 197.41 L 278.24 195.82 L 277.64 194.23 L 277.05 192.63 L 276.45 191.05 L 275.86 189.46 L 275.26 187.87 L 274.67 186.28 L 274.08 184.70 L 273.50 183.12 L 272.91 181.53 L 272.33 179.95 L 271.75 178.37 L 271.17 176.79 L 270.60 175.22 L 270.03 173.64 L 269.46 172.06 L 268.90 170.48 L 268.33 168.91 L 267.77 167.33 L 267.22 165.75 L 266.66 164.18 L 266.11 162.60 L 265.57 161.02 L 265.02 159.44 L 264.48 157.86 L 263.94 156.28 L 263.41 154.70 L 262.87 153.11 L 262.34 151.52 L 261.82 149.93 L 261.29 148.34 L 260.77 146.75 L 260.26 145.15 L 259.74 143.56 L 259.23 141.95 L 258.72 140.35 L 258.22 138.74 L 257.72 137.13 L 257.22 135.52 L 256.73 133.90 L 256.24 132.28 L 255.75 130.65 L 255.26 129.02 L 254.78 127.39 L 254.31 125.75 L 253.83 124.10 L 253.36 122.46 L 252.89 120.80 L 252.43 119.14 L 251.97 117.48 L 251.51 115.81 L 251.06 114.13 L 250.60 112.46 L 250.15 110.78 L 249.68 109.11 L 249.21 107.45 L 248.72 105.80 L 248.22 104.17 L 247.70 102.55 L 247.15 100.96 L 246.58 99.40 L 245.98 97.87 L 245.35 96.38 L 244.68 94.92 L 243.97 93.51 L 243.22 92.14 L 242.42 90.83 L 241.57 89.56 L 240.67 88.36 L 239.71 87.21 L 238.69 86.13 L 237.61 85.12 L 236.46 84.19 L 235.25 83.32 L 233.96 82.54 L 232.62 81.83 L 231.22 81.19 L 229.76 80.62 L 228.26 80.12 L 226.71 79.69 L 225.12 79.33 L 223.51 79.03 L 221.86 78.80 L 220.19 78.63 L 218.49 78.52 L 216.79 78.47 L 215.07 78.47 L 213.35 78.54 L 211.63 78.65 L 209.91 78.83 L 208.20 79.05 L 206.51 79.32 L 204.83 79.64 L 203.18 80.01 Z" fill="url(#avensioGradient)"/>
</svg>
